<!DOCTYPE svg PUBLIC "-//W3C//DTD SVG 1.1//EN" "http://www.w3.org/Graphics/SVG/1.1/DTD/svg11.dtd">
<!-- Uploaded to: SVG Repo, www.svgrepo.com, Transformed by: SVG Repo Mixer Tools -->
<svg fill="#c20d00" version="1.1" id="Capa_1" xmlns="http://www.w3.org/2000/svg" xmlns:xlink="http://www.w3.org/1999/xlink" width="800px" height="800px" viewBox="0 0 515.854 515.853" xml:space="preserve" stroke="#c20d00">
<g id="SVGRepo_bgCarrier" stroke-width="0"/>
<g id="SVGRepo_tracerCarrier" stroke-linecap="round" stroke-linejoin="round"/>
<g id="SVGRepo_iconCarrier"> <g> <g> <path d="M18.144,262.79c3.351,0,6.751-0.938,9.787-2.887l45.222-29.097v189.068h308.986V314.561 c0,0-118.581,3.355-205.426-116.714l-69.759,37.752v144.437h-7.841V214.104l81.48-52.435c6.786-4.431,18.848-11.031,33.466-16.857 c87.031-9.306,202.962,59.993,234.954,80.418c4.724,3.017,4.243,3.922-0.993,1.951c-153.72-58.026-225.714-57.937-256.083-51.91 c-5.481,1.087-6.933,6.044-3.281,10.284c33.524,39.149,90.07,93.082,152.833,101.529c81.025,10.936,148.091-27.46,170.806-42.58 c4.658-3.097,4.719-8.681,0.336-12.153c-28.609-22.598-127.532-99.465-180.149-124.331c-7.369-3.491-15.531-5.503-24.086-6.578 c-67.421-21.614-144.342,27.729-147.513,29.813L8.319,229.417c-8.419,5.418-10.849,16.628-5.437,25.05 C6.343,259.849,12.191,262.79,18.144,262.79z M185.505,289.018h33.773v33.775h-33.773V289.018z M185.505,341.126h33.773v33.775 h-33.773V341.126z M131.131,289.018h33.773v33.775h-33.773V289.018z M131.131,341.126h33.773v33.775h-33.773V341.126z"/> </g> </g> </g>
</svg>